<svg width="58" height="58" viewBox="0 0 58 58" fill="none" xmlns="http://www.w3.org/2000/svg">
<path d="M52.2061 46.9863C55.0892 46.9863 57.4266 49.3239 57.4268 52.207V57.4277H52.2061C49.3228 57.4277 46.9854 55.0903 46.9854 52.207V46.9863H52.2061ZM41.7646 41.7656V46.9863C41.7646 49.8696 39.4272 52.207 36.5439 52.207H15.6621C12.7788 52.207 10.4414 49.8696 10.4414 46.9863V41.7656H41.7646ZM10.4414 41.7656H5.2207C2.33741 41.7656 2.27272e-05 39.4282 0 36.5449V15.6621C0.000247947 12.779 2.33755 10.4414 5.2207 10.4414H10.4414V41.7656ZM46.9863 10.4414C49.8695 10.4414 52.2068 12.779 52.207 15.6621V36.5449C52.207 39.4282 49.8696 41.7656 46.9863 41.7656H41.7656V10.4414H46.9863ZM36.5439 0C39.4272 0 41.7645 2.33753 41.7646 5.2207V10.4414H10.4414V5.2207C10.4416 2.33753 12.7789 0 15.6621 0H36.5439Z" fill="white"/>
</svg>
