<svg width="161" height="40" viewBox="0 0 161 40" fill="none" xmlns="http://www.w3.org/2000/svg">
<path d="M6.32411 5.77076C6.32411 4.0244 7.73981 2.6087 9.48617 2.6087H12.6482V8.93281H6.32411V5.77076Z" fill="white"/>
<rect x="12.6482" y="2.6087" width="6.32411" height="6.32411" fill="white"/>
<path d="M18.9723 2.6087H22.1344C23.8808 2.6087 25.2965 4.0244 25.2965 5.77076V8.93281H18.9723V2.6087Z" fill="white"/>
<path d="M25.2965 8.9328H28.4585C30.2049 8.9328 31.6206 10.3485 31.6206 12.0949V15.2569H25.2965V8.9328Z" fill="white"/>
<path d="M0 12.0949C0 10.3485 1.4157 8.9328 3.16206 8.9328H6.32411V15.2569H0V12.0949Z" fill="white"/>
<rect x="25.2965" y="15.257" width="6.32411" height="6.32411" fill="white"/>
<rect y="15.257" width="6.32411" height="6.32411" fill="white"/>
<path d="M25.2965 21.581H31.6206V24.743C31.6206 26.4894 30.2049 27.9051 28.4585 27.9051H25.2965V21.581Z" fill="white"/>
<path d="M0 21.581H6.32411V27.9051H3.16205C1.4157 27.9051 0 26.4894 0 24.743V21.581Z" fill="white"/>
<path d="M18.9723 27.9052H25.2965V31.0672C25.2965 32.8136 23.8808 34.2293 22.1344 34.2293H18.9723V27.9052Z" fill="white"/>
<path d="M28.4585 31.0672H31.6206C33.3669 31.0672 34.7826 32.4829 34.7826 34.2293V37.3913H31.6206C29.8742 37.3913 28.4585 35.9756 28.4585 34.2293V31.0672Z" fill="white"/>
<rect x="12.6482" y="27.9052" width="6.32411" height="6.32411" fill="white"/>
<path d="M6.32411 27.9052H12.6482V34.2293H9.48617C7.73981 34.2293 6.32411 32.8136 6.32411 31.0672V27.9052Z" fill="white"/>
<path d="M58.4061 31.287C56.9904 31.287 55.6704 31.0287 54.4461 30.5122C53.2217 29.9765 52.1504 29.24 51.2322 28.3026C50.3139 27.3461 49.5965 26.2461 49.08 25.0026C48.5635 23.7591 48.3052 22.4296 48.3052 21.0139C48.3052 19.5791 48.5635 18.2496 49.08 17.0252C49.5965 15.7817 50.3044 14.6913 51.2035 13.7539C52.1217 12.8165 53.1835 12.0896 54.3887 11.573C55.613 11.0565 56.933 10.7983 58.3487 10.7983C59.7644 10.7983 61.0748 11.0565 62.28 11.573C63.5044 12.0896 64.5757 12.8165 65.4939 13.7539C66.4122 14.6913 67.12 15.7817 67.6174 17.0252C68.1339 18.2687 68.3922 19.6078 68.3922 21.0426C68.3922 22.4583 68.1339 23.7878 67.6174 25.0313C67.12 26.2748 66.4122 27.3652 65.4939 28.3026C64.5948 29.24 63.533 29.9765 62.3087 30.5122C61.1035 31.0287 59.8026 31.287 58.4061 31.287ZM67.933 32.4061L58.607 23.08L60.3574 21.3296L69.6548 30.6557L67.933 32.4061ZM58.3487 28.7043C59.7644 28.7043 61.0174 28.3791 62.1078 27.7287C63.1983 27.0591 64.0496 26.1504 64.6617 25.0026C65.293 23.8357 65.6087 22.5061 65.6087 21.0139C65.6087 19.9043 65.427 18.8904 65.0635 17.9722C64.7191 17.0348 64.2217 16.2217 63.5713 15.533C62.9209 14.8443 62.1557 14.3183 61.2757 13.9548C60.3957 13.5722 59.42 13.3809 58.3487 13.3809C56.933 13.3809 55.68 13.7061 54.5896 14.3565C53.4991 15.007 52.6383 15.9061 52.007 17.0539C51.3948 18.2017 51.0887 19.5217 51.0887 21.0139C51.0887 22.1235 51.2704 23.1565 51.6339 24.113C51.9974 25.0504 52.4948 25.8635 53.1261 26.5522C53.7765 27.2217 54.5417 27.7478 55.4217 28.1304C56.3209 28.513 57.2965 28.7043 58.3487 28.7043ZM77.7866 31.287C76.6771 31.287 75.6727 31.0383 74.7736 30.5409C73.8936 30.0243 73.2049 29.3165 72.7075 28.4174C72.2101 27.5183 71.9614 26.4757 71.9614 25.2896V17.3696H74.544V25.1748C74.544 25.9209 74.6684 26.5713 74.9171 27.1261C75.1849 27.6617 75.5675 28.073 76.0649 28.36C76.5623 28.647 77.1458 28.7904 77.8153 28.7904C78.8292 28.7904 79.6232 28.4748 80.1971 27.8435C80.771 27.193 81.0579 26.3035 81.0579 25.1748V17.3696H83.6406V25.2896C83.6406 26.4757 83.3919 27.5183 82.8945 28.4174C82.3971 29.3165 81.7084 30.0243 80.8284 30.5409C79.9675 31.0383 78.9536 31.287 77.7866 31.287ZM93.3289 31.287C91.9898 31.287 90.7846 30.9713 89.7133 30.34C88.642 29.7087 87.7907 28.8574 87.1594 27.7861C86.5281 26.6957 86.2124 25.4809 86.2124 24.1417C86.2124 22.8217 86.5281 21.6357 87.1594 20.5835C87.7907 19.5122 88.642 18.6609 89.7133 18.0296C90.7846 17.3983 91.9898 17.0826 93.3289 17.0826C94.6489 17.0826 95.8446 17.3983 96.9159 18.0296C98.0063 18.6417 98.8672 19.4835 99.4985 20.5548C100.13 21.6261 100.445 22.8217 100.445 24.1417C100.445 25.4809 100.13 26.6957 99.4985 27.7861C98.8672 28.8574 98.0063 29.7087 96.9159 30.34C95.8446 30.9713 94.6489 31.287 93.3289 31.287ZM93.3289 28.7904C94.1898 28.7904 94.955 28.5896 95.6246 28.1878C96.2941 27.7861 96.8202 27.2409 97.2028 26.5522C97.5854 25.8443 97.7768 25.0409 97.7768 24.1417C97.7768 23.2617 97.5759 22.4774 97.1741 21.7887C96.7915 21.1 96.2654 20.5643 95.5959 20.1817C94.9454 19.78 94.1898 19.5791 93.3289 19.5791C92.4681 19.5791 91.7028 19.78 91.0333 20.1817C90.3637 20.5643 89.8376 21.1 89.455 21.7887C89.0724 22.4774 88.8811 23.2617 88.8811 24.1417C88.8811 25.0409 89.0724 25.8443 89.455 26.5522C89.8376 27.2409 90.3637 27.7861 91.0333 28.1878C91.7028 28.5896 92.4681 28.7904 93.3289 28.7904ZM103.355 31V17.3696H105.938V31H103.355ZM105.938 23.2235L104.962 22.793C104.962 21.0522 105.364 19.6652 106.168 18.6322C106.971 17.5991 108.128 17.0826 109.64 17.0826C110.328 17.0826 110.95 17.207 111.505 17.4557C112.06 17.6852 112.576 18.0774 113.054 18.6322L111.361 20.3826C111.074 20.0765 110.759 19.8565 110.414 19.7226C110.07 19.5887 109.668 19.5217 109.209 19.5217C108.253 19.5217 107.468 19.8278 106.856 20.44C106.244 21.0522 105.938 21.98 105.938 23.2235ZM120.354 31.287C119.244 31.287 118.24 31.0383 117.341 30.5409C116.461 30.0243 115.772 29.3165 115.275 28.4174C114.777 27.5183 114.529 26.4757 114.529 25.2896V17.3696H117.111V25.1748C117.111 25.9209 117.235 26.5713 117.484 27.1261C117.752 27.6617 118.135 28.073 118.632 28.36C119.129 28.647 119.713 28.7904 120.382 28.7904C121.396 28.7904 122.19 28.4748 122.764 27.8435C123.338 27.193 123.625 26.3035 123.625 25.1748V17.3696H126.208V25.2896C126.208 26.4757 125.959 27.5183 125.462 28.4174C124.964 29.3165 124.275 30.0243 123.395 30.5409C122.535 31.0383 121.521 31.287 120.354 31.287ZM129.669 31V17.3696H132.252V31H129.669ZM138.88 31V22.7643C138.88 21.7504 138.565 20.9565 137.933 20.3826C137.321 19.7896 136.546 19.493 135.609 19.493C134.978 19.493 134.413 19.627 133.916 19.8948C133.419 20.1626 133.017 20.5357 132.711 21.0139C132.405 21.4922 132.252 22.0661 132.252 22.7357L131.19 22.2191C131.19 21.1861 131.41 20.287 131.85 19.5217C132.309 18.7565 132.931 18.1635 133.715 17.7426C134.499 17.3026 135.379 17.0826 136.355 17.0826C137.312 17.0826 138.173 17.293 138.938 17.7139C139.722 18.1348 140.334 18.7278 140.774 19.493C141.233 20.2583 141.463 21.167 141.463 22.2191V31H138.88ZM148.092 31V22.7643C148.092 21.7504 147.776 20.9565 147.145 20.3826C146.533 19.7896 145.767 19.493 144.849 19.493C144.218 19.493 143.644 19.627 143.127 19.8948C142.63 20.1626 142.228 20.5357 141.922 21.0139C141.616 21.4922 141.463 22.0661 141.463 22.7357L139.999 22.2191C140.057 21.167 140.334 20.2678 140.832 19.5217C141.348 18.7565 142.008 18.1635 142.812 17.7426C143.615 17.3026 144.495 17.0826 145.452 17.0826C146.446 17.0826 147.336 17.293 148.12 17.7139C148.905 18.1348 149.526 18.7278 149.986 19.493C150.464 20.2583 150.703 21.1765 150.703 22.2478V31H148.092ZM156.484 31.287C155.949 31.287 155.499 31.1052 155.136 30.7417C154.791 30.3591 154.619 29.9096 154.619 29.393C154.619 28.8574 154.791 28.4174 155.136 28.073C155.499 27.7096 155.949 27.5278 156.484 27.5278C157.02 27.5278 157.46 27.7096 157.804 28.073C158.168 28.4174 158.349 28.8574 158.349 29.393C158.349 29.9096 158.168 30.3591 157.804 30.7417C157.46 31.1052 157.02 31.287 156.484 31.287Z" fill="white"/>
</svg>
