<svg width="36" height="36" viewBox="0 0 36 36" fill="none" xmlns="http://www.w3.org/2000/svg">
<g clip-path="url(#clip0_503_726)">
<mask id="mask0_503_726" style="mask-type:luminance" maskUnits="userSpaceOnUse" x="0" y="0" width="36" height="36">
<path d="M27 0H9C4.02944 0 0 4.02944 0 9V27C0 31.9706 4.02944 36 9 36H27C31.9706 36 36 31.9706 36 27V9C36 4.02944 31.9706 0 27 0Z" fill="white"/>
</mask>
<g mask="url(#mask0_503_726)">
<path d="M27 0H9C4.02944 0 0 4.02944 0 9V27C0 31.9706 4.02944 36 9 36H27C31.9706 36 36 31.9706 36 27V9C36 4.02944 31.9706 0 27 0Z" fill="url(#paint0_linear_503_726)"/>
<path d="M0 18C0 8.05888 8.05888 0 18 0C27.9411 0 36 8.05888 36 18C36 27.9411 27.9411 36 18 36C8.05888 36 0 27.9411 0 18Z" fill="url(#paint1_linear_503_726)"/>
</g>
<path d="M9.81812 14.8515L25.3636 5.72705L24.9517 12.2211L11.7124 19.9918L9.81812 14.8515Z" fill="#004104"/>
<path opacity="0.5" d="M11.7123 19.9914L22.6454 13.5742L22.2335 20.0682L13.6066 25.1318L11.7123 19.9914Z" fill="#004104"/>
<path opacity="0.25" d="M13.6052 25.1328L19.9259 21.4229L19.514 27.9169L15.4995 30.2732L13.6052 25.1328Z" fill="#004104"/>
</g>
<rect x="0.818182" y="0.818182" width="34.3636" height="34.3636" rx="17.1818" stroke="url(#paint2_linear_503_726)" stroke-width="1.63636"/>
<defs>
<linearGradient id="paint0_linear_503_726" x1="18" y1="6.5" x2="18" y2="27" gradientUnits="userSpaceOnUse">
<stop stop-color="#4BB255"/>
<stop offset="1" stop-color="#99E39E"/>
</linearGradient>
<linearGradient id="paint1_linear_503_726" x1="18" y1="7.37607e-07" x2="19.5" y2="36" gradientUnits="userSpaceOnUse">
<stop stop-color="white" stop-opacity="0"/>
<stop offset="1" stop-color="white" stop-opacity="0.12"/>
</linearGradient>
<linearGradient id="paint2_linear_503_726" x1="18" y1="0" x2="18" y2="36" gradientUnits="userSpaceOnUse">
<stop stop-color="white" stop-opacity="0.25"/>
<stop offset="1" stop-color="white" stop-opacity="0"/>
</linearGradient>
<clipPath id="clip0_503_726">
<rect width="36" height="36" rx="18" fill="white"/>
</clipPath>
</defs>
</svg>
