<svg width="124" height="36" viewBox="0 0 124 36" fill="none" xmlns="http://www.w3.org/2000/svg">
<g clip-path="url(#clip0_539_17247)">
<mask id="mask0_539_17247" style="mask-type:luminance" maskUnits="userSpaceOnUse" x="0" y="0" width="36" height="36">
<path d="M27 0H9C4.02944 0 0 4.02944 0 9V27C0 31.9706 4.02944 36 9 36H27C31.9706 36 36 31.9706 36 27V9C36 4.02944 31.9706 0 27 0Z" fill="white"/>
</mask>
<g mask="url(#mask0_539_17247)">
<path d="M27 0H9C4.02944 0 0 4.02944 0 9V27C0 31.9706 4.02944 36 9 36H27C31.9706 36 36 31.9706 36 27V9C36 4.02944 31.9706 0 27 0Z" fill="url(#paint0_linear_539_17247)"/>
<path d="M0 18C0 8.05888 8.05888 0 18 0C27.9411 0 36 8.05888 36 18C36 27.9411 27.9411 36 18 36C8.05888 36 0 27.9411 0 18Z" fill="url(#paint1_linear_539_17247)"/>
</g>
<path d="M9.81812 14.8517L25.3636 5.72729L24.9517 12.2213L11.7124 19.992L9.81812 14.8517Z" fill="#004104"/>
<path opacity="0.5" d="M11.7122 19.9917L22.6452 13.5745L22.2333 20.0685L13.6064 25.132L11.7122 19.9917Z" fill="#004104"/>
<path opacity="0.25" d="M13.6052 25.1327L19.9259 21.4227L19.514 27.9167L15.4995 30.2731L13.6052 25.1327Z" fill="#004104"/>
</g>
<rect x="0.818182" y="0.818182" width="34.3636" height="34.3636" rx="17.1818" stroke="url(#paint2_linear_539_17247)" stroke-width="1.63636"/>
<path d="M51.76 26H49.56V11.64H58.28V13.56H51.76V18.24H57.32V20.16H51.76V26ZM62.0813 20.58V26H60.0613V15.4H61.9413V17.64C62.6813 16.18 64.2813 15.26 66.0213 15.26V17.36C63.7413 17.24 62.0813 18.24 62.0813 20.58ZM73.9198 26V24.36C73.2598 25.54 72.0798 26.2 70.5198 26.2C68.3198 26.2 66.8798 24.94 66.8798 23C66.8798 20.92 68.5398 19.84 71.6998 19.84C72.3198 19.84 72.8198 19.86 73.6798 19.96V19.18C73.6798 17.66 72.8598 16.8 71.4598 16.8C69.9798 16.8 69.0798 17.68 69.0198 19.16H67.1798C67.2798 16.78 68.9798 15.2 71.4598 15.2C74.0798 15.2 75.5998 16.68 75.5998 19.2V26H73.9198ZM68.7998 22.94C68.7998 24.04 69.6198 24.76 70.9198 24.76C72.6198 24.76 73.6798 23.7 73.6798 22.08V21.22C72.8998 21.12 72.3398 21.1 71.8198 21.1C69.7998 21.1 68.7998 21.7 68.7998 22.94ZM77.4206 20.7C77.4206 17.48 79.2606 15.2 82.1206 15.2C83.5406 15.2 84.7806 15.92 85.5206 17.22V11.64H87.5406V26H85.6606V24.1C84.9006 25.44 83.6206 26.2 82.1206 26.2C79.2606 26.2 77.4206 23.88 77.4206 20.7ZM79.5206 20.7C79.5206 23.06 80.7606 24.4 82.5206 24.4C84.2406 24.4 85.5206 23 85.5206 20.66C85.5206 18.28 84.2006 16.98 82.5206 16.98C80.7606 16.98 79.5206 18.3 79.5206 20.7ZM92.6886 12.94C92.6886 13.7 92.0886 14.28 91.2286 14.28C90.3686 14.28 89.7486 13.7 89.7486 12.94C89.7486 12.16 90.3686 11.6 91.2286 11.6C92.0886 11.6 92.6886 12.16 92.6886 12.94ZM92.2486 26H90.2286V15.4H92.2486V26ZM101.553 21.64V15.4H103.573V26H101.693V24.32C101.133 25.42 99.8928 26.2 98.4528 26.2C96.3128 26.2 94.8328 24.94 94.8328 22.22V15.4H96.8528V21.82C96.8528 23.66 97.7728 24.42 99.0928 24.42C100.453 24.42 101.553 23.3 101.553 21.64ZM108.278 26H106.258V15.4H108.138V17.16C108.858 15.94 109.998 15.2 111.458 15.2C113.018 15.2 114.198 16 114.678 17.4C115.418 16.04 116.638 15.2 118.258 15.2C120.438 15.2 121.838 16.62 121.838 19.14V26H119.818V19.78C119.818 18.02 119.038 16.98 117.558 16.98C116.178 16.98 115.058 18.14 115.058 19.92V26H113.038V19.78C113.038 18.02 112.258 16.98 110.778 16.98C109.378 16.98 108.278 18.14 108.278 19.92V26Z" fill="white"/>
<defs>
<linearGradient id="paint0_linear_539_17247" x1="18" y1="6.5" x2="18" y2="27" gradientUnits="userSpaceOnUse">
<stop stop-color="#4BB255"/>
<stop offset="1" stop-color="#99E39E"/>
</linearGradient>
<linearGradient id="paint1_linear_539_17247" x1="18" y1="7.37607e-07" x2="19.5" y2="36" gradientUnits="userSpaceOnUse">
<stop stop-color="white" stop-opacity="0"/>
<stop offset="1" stop-color="white" stop-opacity="0.12"/>
</linearGradient>
<linearGradient id="paint2_linear_539_17247" x1="18" y1="0" x2="18" y2="36" gradientUnits="userSpaceOnUse">
<stop stop-color="white" stop-opacity="0.25"/>
<stop offset="1" stop-color="white" stop-opacity="0"/>
</linearGradient>
<clipPath id="clip0_539_17247">
<rect width="36" height="36" rx="18" fill="white"/>
</clipPath>
</defs>
</svg>
